<svg width="800" height="600" xmlns="http://www.w3.org/2000/svg">
 <g>
  <title>Layer 1</title>
  <path stroke="#000" id="svg_6" d="m234.50776,597.90906c-32.29427,-9.63815 9.84727,-28.9081 25.80177,-37.43221c10.74671,-6.56468 -61.59017,0.92088 -31.05017,-21.86775c33.50684,-18.61707 20.84972,-50.11303 -12.64261,-64.75353c-46.09244,-20.59717 -105.232,-38.22547 -122.26024,-76.68601c-17.21808,-23.95536 23.61489,-49.18523 -2.64865,-70.81755c-21.13979,-28.08727 3.55749,-57.37641 18.90863,-83.39491c7.05961,-35.9913 -36.18629,-64.45358 -59.96887,-94.02243c-29.44824,-28.25666 -46.42356,-61.18218 -48.86287,-95.49447c-6.40421,-14.64594 0.68312,-37.39069 26.25635,-17.645c53.55417,28.38022 112.34765,55.30964 149.82926,94.15532c7.09489,14.03137 35.50414,54.69831 37.09053,17.87208c0.74299,-50.61508 24.10145,-105.8184 83.95568,-139.73692c40.7118,-24.55106 62.66752,18.43686 64.5671,40.28169c10.59652,42.98146 -6.96848,85.60457 -26.54204,126.2064c-7.18565,18.86897 -25.89891,70.57685 27.47155,51.51128c122.94637,-31.41447 271.90503,1.57917 351.98701,69.0641c36.81298,32.67537 52.93471,74.65561 52.57074,114.96373c-18.95581,23.68083 51.47517,-0.44362 25.9544,26.87692c-15.0238,30.26465 -57.47195,46.6866 -87.20563,69.53018c-30.25646,18.30488 -7.80708,57.44149 -57.8425,63.20823c-73.00776,14.89516 -149.67191,21.4198 -225.67555,25.21758c-42.53141,5.76674 -63.17212,-26.41974 -22.40728,-39.80049c19.54378,-19.93944 75.45799,-21.33676 92.07121,-24.49553c-39.70017,2.57077 -88.66037,-8.15321 -122.11361,8.11885c-20.25969,21.76654 -36.48594,50.41603 -78.97075,56.62885c-19.09258,3.50939 -38.72317,6.32368 -58.27342,2.5116l-0.00003,0.00002z" fill="#199319"/>
 </g>

</svg>